<svg id="Layer_1" data-name="Layer 1" xmlns="http://www.w3.org/2000/svg" xmlns:xlink="http://www.w3.org/1999/xlink" viewBox="0 0 450 200.72"><defs><style>.cls-1,.cls-4{fill:none;}.cls-2{fill:#010101;}.cls-3{clip-path:url(#clip-path);}.cls-4{stroke:#010101;stroke-miterlimit:10;stroke-width:2px;}.cls-5{font-size:18px;font-family:JetBrainsMono-Bold, JetBrains Mono;font-weight:700;}.cls-5,.cls-7,.cls-8{fill:#231f20;}.cls-6{fill:url(#radial-gradient);}.cls-8{font-size:67.95px;font-family:BookAntiqua, Book Antiqua;}.cls-9{font-size:76.44px;font-family:BrushScriptMT, Brush Script MT;}</style><clipPath id="clip-path"><rect class="cls-1" x="285.66" y="40.31" width="123.44" height="124.07"/></clipPath><radialGradient id="radial-gradient" cx="225" cy="100" r="114.48" gradientTransform="translate(-119.43 14.26) scale(1.53 0.86)" gradientUnits="userSpaceOnUse"><stop offset="0.66" stop-color="#fff"/><stop offset="0.7" stop-color="#fff" stop-opacity="0.98"/><stop offset="0.74" stop-color="#fff" stop-opacity="0.93"/><stop offset="0.79" stop-color="#fff" stop-opacity="0.84"/><stop offset="0.83" stop-color="#fff" stop-opacity="0.71"/><stop offset="0.88" stop-color="#fff" stop-opacity="0.55"/><stop offset="0.93" stop-color="#fff" stop-opacity="0.35"/><stop offset="0.98" stop-color="#fff" stop-opacity="0.12"/><stop offset="1" stop-color="#fff" stop-opacity="0"/></radialGradient></defs><path class="cls-2" d="M94.86,63.86l10.93-15.81a6.16,6.16,0,0,1,5.07-2.66H164v-4.1H110.86a10.23,10.23,0,0,0-8.43,4.42l-11,15.81a10.24,10.24,0,0,0,2.59,14.23c.24.16.49.32.75.46a10.11,10.11,0,0,0,6.66,1.18,10.07,10.07,0,0,0,.16,3.24L99.87,84.4l-5.58-2.6a2.06,2.06,0,0,0-2.73,1l-3.47,7.44a2.05,2.05,0,0,0,1,2.73h0l5.43,2.53L83.06,115.8a12.32,12.32,0,0,0-6.06.91l-1-6.26a2,2,0,0,0-2.32-1.69h0l-6.08,1-.23-1.42,5.85-12.91a2,2,0,0,0-1-2.71A2.08,2.08,0,0,0,71,92.56l-4.26.7a10.29,10.29,0,0,0-9.18-6.59l-.7-4.26-4,.67.7,4.25a10.29,10.29,0,0,0-6.6,9.19l-4.25.7a2,2,0,0,0-1.69,2.36,2,2,0,0,0,.52,1.06L51.12,111l.23,1.41-6.07,1a2.05,2.05,0,0,0-1.69,2.35l1.33,8.1a2,2,0,0,0,2,1.72,1.84,1.84,0,0,0,.33,0l5.92-1,2,23.24a12.33,12.33,0,0,0-6.36,12.46H40.9v4.11H164v-4.11H76.39L84,159.05a2,2,0,0,0,1.69-2.35h0l-.33-2a12.35,12.35,0,0,0-10.08-10.14L71.1,127.59l29.4,13.71a2,2,0,0,0,2.72-1l.87-1.86a12.14,12.14,0,0,0-2.62-14l8.22-21.86,5.43,2.51a2,2,0,0,0,.86.2,2.07,2.07,0,0,0,.7-.13,2,2,0,0,0,1.16-1.06l3.47-7.44a2,2,0,0,0-1-2.72h0l-5.58-2.59,1.76-3.77c.25-.14.48-.31.73-.47a10.11,10.11,0,0,0,9.84,7.52H164v-4.1H127.07a6.18,6.18,0,0,1-4.56-2,6.09,6.09,0,0,1-1.57-4.75,6.4,6.4,0,0,1,6.48-5.54h7.85a10.26,10.26,0,0,0,0-20.52H114.76a2,2,0,0,0-1.71.92L105,70.73c0,.07-.1.13-.15.2a9,9,0,0,0-.94,1,6.1,6.1,0,0,1-9.3-7.64C94.67,64.15,94.76,64,94.86,63.86Zm-38.73,27A6.17,6.17,0,0,1,62.52,94l-7.85,1.3-3.6.59A6.15,6.15,0,0,1,56.13,90.84Zm-9.06,9.81,10.39-1.71,8.09-1.33,2.29-.38-4.51,10a2.08,2.08,0,0,0-.16,1.18l.34,2-5.22.86-2.88.47-.33-2a2.09,2.09,0,0,0-.53-1.07Zm24.77,47.9a8.24,8.24,0,0,1,9.44,6.77L52.92,160a8.22,8.22,0,0,1,6.77-9.44l6.08-1ZM57.25,123.92l7.67-1.26.72-.11,5.37,22-11.82,1.95Zm13.37-1.09-.45,1-.46-1.91,1.57-.26A12.81,12.81,0,0,0,70.62,122.83Zm-22-1.64-.66-4,24.29-4,.67,4Zm51.74,15.52h0l-26-12.15a8.22,8.22,0,0,1,10.91-4h0L96.4,125.8A8.21,8.21,0,0,1,100.37,136.71ZM98,122l-5.43-2.54L87.13,117,98.24,97.23l7.72,3.6ZM116.72,96.8,115,100.52l-5.57-2.61-11.15-5.2-5.57-2.6,1.73-3.72Zm-.86-35h19.41a6.16,6.16,0,1,1,0,12.31h-7.85a10.66,10.66,0,0,0-5.92,1.8,10.35,10.35,0,0,0-3.73-5.54l1.8-3.95-3.72-1.74-1.8,3.94a11,11,0,0,0-2.56-.27Zm-10.21,19.9a2,2,0,0,0,.11-1.44,6.11,6.11,0,0,1,.3-4.31,6.59,6.59,0,0,1,.65-1.08,11.11,11.11,0,0,0,1-1,6.14,6.14,0,1,1,6.46,10.28,2,2,0,0,0-1,1L111,89.6l-7.44-3.47Z"/><g class="cls-3"><rect class="cls-4" x="286.28" y="40.94" width="34.41" height="34.41"/><rect class="cls-4" x="328.98" y="40.94" width="34.41" height="34.41"/><rect class="cls-4" x="371.68" y="40.94" width="34.41" height="34.41"/><rect class="cls-4" x="286.28" y="83.64" width="34.41" height="34.41"/><rect class="cls-4" x="328.98" y="83.64" width="34.41" height="34.41"/><rect class="cls-4" x="371.68" y="83.64" width="34.41" height="34.41"/><rect class="cls-4" x="286.28" y="126.34" width="34.41" height="34.41"/><rect class="cls-4" x="328.98" y="126.34" width="34.41" height="34.41"/><rect class="cls-4" x="371.68" y="126.34" width="34.41" height="34.41"/></g><text class="cls-5" transform="translate(383.41 64.26)">?</text><text class="cls-5" transform="translate(340.31 150.82)">?</text><text class="cls-5" transform="translate(383.71 107.37)">2</text><text class="cls-5" transform="translate(340.34 107.37)">4</text><text class="cls-5" transform="translate(383.82 150.82)">8</text><text class="cls-5" transform="translate(340.42 64.26)">1</text><rect class="cls-6" width="450" height="200.72"/><path class="cls-7" d="M121.11,138.83l4.67-14h2.41l4.67,14h-1.79l-4.37-13h.54l-4.34,13Zm2.25-3.26V134h7.25v1.62Z"/><path class="cls-7" d="M134.8,138.83V124.58h1.73v14.25Z"/><path class="cls-7" d="M143.55,139.12a4.34,4.34,0,0,1-2.49-.72,4.55,4.55,0,0,1-1.63-2,7.34,7.34,0,0,1,0-5.67,4.61,4.61,0,0,1,1.64-2,4.34,4.34,0,0,1,2.47-.71,4.23,4.23,0,0,1,2.47.71,4.46,4.46,0,0,1,1.55,2,8,8,0,0,1,0,5.69,4.46,4.46,0,0,1-1.55,2A4.15,4.15,0,0,1,143.55,139.12Zm.13,4.66a5.07,5.07,0,0,1-2.4-.59,4.21,4.21,0,0,1-1.74-1.71l1.58-.83a2.43,2.43,0,0,0,1.06,1.09,3.13,3.13,0,0,0,1.51.37,3.39,3.39,0,0,0,1.65-.36,2.27,2.27,0,0,0,1-1.07,4.44,4.44,0,0,0,.31-1.8V136h.2v-7.66h1.53V138.9a9.12,9.12,0,0,1-.12,1.61,3.63,3.63,0,0,1-1.47,2.46A5.33,5.33,0,0,1,143.68,143.78Zm.09-6.24a2.79,2.79,0,0,0,1.71-.5,3,3,0,0,0,1-1.39,6.63,6.63,0,0,0,0-4.13,3,3,0,0,0-1-1.38,2.76,2.76,0,0,0-1.68-.49,2.88,2.88,0,0,0-1.73.51,3.08,3.08,0,0,0-1,1.4,6.06,6.06,0,0,0,0,4.06,3.06,3.06,0,0,0,1,1.41A2.81,2.81,0,0,0,143.77,137.54Z"/><path class="cls-7" d="M155.54,139.12a5,5,0,0,1-2.68-.7,4.63,4.63,0,0,1-1.75-2,6.44,6.44,0,0,1-.61-2.87,6.29,6.29,0,0,1,.62-2.88,4.57,4.57,0,0,1,1.76-2,5.07,5.07,0,0,1,2.66-.69,5,5,0,0,1,2.69.7,4.48,4.48,0,0,1,1.75,1.95,6.41,6.41,0,0,1,.61,2.87,6.5,6.5,0,0,1-.61,2.89,4.68,4.68,0,0,1-1.76,2A5.09,5.09,0,0,1,155.54,139.12Zm0-1.63a3.13,3.13,0,0,0,1.78-.49,2.92,2.92,0,0,0,1.08-1.37,5.38,5.38,0,0,0,.36-2,4.42,4.42,0,0,0-.82-2.84,2.86,2.86,0,0,0-2.4-1,3.11,3.11,0,0,0-1.78.48,3,3,0,0,0-1.08,1.36,5.51,5.51,0,0,0-.35,2,5.28,5.28,0,0,0,.37,2.07,2.93,2.93,0,0,0,1.09,1.35A3.05,3.05,0,0,0,155.54,137.49Z"/><path class="cls-7" d="M162.73,138.83V128.36h1.54v2.53l-.25-.33a3.64,3.64,0,0,1,.48-.89,3,3,0,0,1,.66-.67,3,3,0,0,1,.91-.5,4.32,4.32,0,0,1,1.05-.2,3.36,3.36,0,0,1,1,.06V130a3.15,3.15,0,0,0-1.23-.06,2.39,2.39,0,0,0-1.17.46,2.65,2.65,0,0,0-.76.84,3.48,3.48,0,0,0-.39,1.06,6.19,6.19,0,0,0-.12,1.3v5.25Z"/><path class="cls-7" d="M170.17,126.51v-1.79h1.72v1.79Zm0,12.32V128.36h1.72v10.47Z"/><path class="cls-7" d="M173.64,129.79v-1.43h7v1.43Zm7,9a6.53,6.53,0,0,1-2.78,0,2.42,2.42,0,0,1-1.75-1.29,2.9,2.9,0,0,1-.31-1,12.56,12.56,0,0,1-.05-1.36v-9.76h1.73v9.65a9.06,9.06,0,0,0,0,1,1.62,1.62,0,0,0,.19.61,1.39,1.39,0,0,0,1.05.72,5.91,5.91,0,0,0,1.9-.05Z"/><path class="cls-7" d="M182.78,138.83v-14h1.55v7.71h.19v6.25Zm7.46-5.24a6.4,6.4,0,0,0-.26-2,2.85,2.85,0,0,0-.89-1.37,2.55,2.55,0,0,0-1.69-.52,2.9,2.9,0,0,0-1.53.39,2.48,2.48,0,0,0-1,1.2,4.87,4.87,0,0,0-.36,2l-1.13-.35a5.83,5.83,0,0,1,.54-2.6,4,4,0,0,1,1.54-1.7,4.58,4.58,0,0,1,2.35-.58,3.78,3.78,0,0,1,2.51.77,4.08,4.08,0,0,1,1.3,1.86A7.37,7.37,0,0,1,192,133v5.79h-1.75Z"/><path class="cls-7" d="M194.5,138.83V128.36H196v2.8h.2v7.67Zm6.29-6.63a3.17,3.17,0,0,0-.28-1.36,2.1,2.1,0,0,0-2-1.21,2.23,2.23,0,0,0-1.19.32,2.09,2.09,0,0,0-.81.9,3,3,0,0,0-.28,1.33l-.91-.54a3.45,3.45,0,0,1,1.81-3.09,3.82,3.82,0,0,1,1.88-.46,3.61,3.61,0,0,1,1.84.45,3.08,3.08,0,0,1,1.22,1.28,4.29,4.29,0,0,1,.42,2v7.05h-1.71Zm6.25-.07a2.93,2.93,0,0,0-.28-1.33,2.08,2.08,0,0,0-.8-.86,2.18,2.18,0,0,0-1.17-.31,2.31,2.31,0,0,0-1.13.28,2.21,2.21,0,0,0-.84.85,3,3,0,0,0-.32,1.42l-.91-.37a3.74,3.74,0,0,1,.46-1.94,3.26,3.26,0,0,1,1.32-1.31,3.72,3.72,0,0,1,1.88-.47,3.76,3.76,0,0,1,1.88.45,3,3,0,0,1,1.22,1.28,4.22,4.22,0,0,1,.42,1.93v7.08H207Z"/><path class="cls-7" d="M215.36,138.83v-14h1.73V137.2h6.48v1.63Z"/><path class="cls-7" d="M229.76,139.12a5.28,5.28,0,0,1-2.7-.67,4.67,4.67,0,0,1-1.79-1.92,6.28,6.28,0,0,1-.63-2.87,6.55,6.55,0,0,1,.62-3,4.65,4.65,0,0,1,1.77-1.95,5.1,5.1,0,0,1,2.65-.68,4.76,4.76,0,0,1,2.68.73,4.36,4.36,0,0,1,1.68,2.08,7.6,7.6,0,0,1,.48,3.2h-1.75v-.62a5.93,5.93,0,0,0-.36-2.14,2.65,2.65,0,0,0-1-1.27,3,3,0,0,0-1.66-.43,3.26,3.26,0,0,0-1.79.46,2.87,2.87,0,0,0-1.11,1.35,5.56,5.56,0,0,0-.37,2.17,5.3,5.3,0,0,0,.37,2.1,2.91,2.91,0,0,0,1.1,1.33,3.22,3.22,0,0,0,1.74.46,3.19,3.19,0,0,0,3-1.85l1.65.57a4.86,4.86,0,0,1-1.09,1.57,4.77,4.77,0,0,1-1.58,1A5.26,5.26,0,0,1,229.76,139.12Zm-3.87-5v-1.39h7.74v1.39Z"/><path class="cls-7" d="M239.46,139.12a4.12,4.12,0,0,1-1.94-.42,3,3,0,0,1-1.21-1.13,3,3,0,0,1-.41-1.57,2.9,2.9,0,0,1,.66-2,3.84,3.84,0,0,1,1.91-1.1,14.19,14.19,0,0,1,1.74-.38c.63-.1,1.52-.22,2.64-.37l.49-.07.45-.06-.62.36a3.83,3.83,0,0,0-.24-1.54,1.72,1.72,0,0,0-.82-.9,3.43,3.43,0,0,0-1.52-.29,3.07,3.07,0,0,0-1.69.45,2.38,2.38,0,0,0-1,1.38l-1.63-.49a3.76,3.76,0,0,1,1.47-2.18,4.92,4.92,0,0,1,2.85-.77,5.34,5.34,0,0,1,2.47.52,3,3,0,0,1,1.45,1.52,3.44,3.44,0,0,1,.27,1,9.45,9.45,0,0,1,.07,1.26v6.47h-1.53v-2.51l.36.23a5,5,0,0,1-1,1.43,4,4,0,0,1-1.41.86A5.52,5.52,0,0,1,239.46,139.12Zm.26-1.44a3.57,3.57,0,0,0,1.58-.33,2.84,2.84,0,0,0,1.11-.87,3,3,0,0,0,.57-1.22,3.8,3.8,0,0,0,.14-.8c0-.29,0-.63,0-1v-.18l.6.26-.71.11c-.92.11-1.67.22-2.25.31a12.34,12.34,0,0,0-1.55.32,3,3,0,0,0-1.18.64,1.38,1.38,0,0,0-.45,1.08,1.6,1.6,0,0,0,.23.84,1.53,1.53,0,0,0,.7.62A2.73,2.73,0,0,0,239.72,137.68Z"/><path class="cls-7" d="M251.5,139.12a4.34,4.34,0,0,1-2.49-.72,4.55,4.55,0,0,1-1.63-2,7.34,7.34,0,0,1,0-5.67,4.67,4.67,0,0,1,1.63-2,4.4,4.4,0,0,1,2.48-.71,4.23,4.23,0,0,1,2.47.71,4.46,4.46,0,0,1,1.55,2,8,8,0,0,1,0,5.69,4.46,4.46,0,0,1-1.55,2A4.15,4.15,0,0,1,251.5,139.12Zm.21-1.58a2.8,2.8,0,0,0,1.72-.5,3,3,0,0,0,1-1.39,6.63,6.63,0,0,0,0-4.13,3,3,0,0,0-1-1.38,2.76,2.76,0,0,0-1.68-.49,2.88,2.88,0,0,0-1.73.51,3.1,3.1,0,0,0-1.05,1.4,6.23,6.23,0,0,0,0,4.06,3.08,3.08,0,0,0,1,1.41A2.78,2.78,0,0,0,251.71,137.54Zm3.07,1.29v-7.71h-.19v-6.25h1.73v14Z"/><path class="cls-7" d="M263.58,139.12a5.28,5.28,0,0,1-2.7-.67,4.74,4.74,0,0,1-1.79-1.92,6.28,6.28,0,0,1-.63-2.87,6.55,6.55,0,0,1,.62-3,4.65,4.65,0,0,1,1.77-1.95,5.1,5.1,0,0,1,2.65-.68,4.76,4.76,0,0,1,2.68.73,4.36,4.36,0,0,1,1.68,2.08,7.6,7.6,0,0,1,.48,3.2h-1.75v-.62a5.93,5.93,0,0,0-.36-2.14,2.65,2.65,0,0,0-1-1.27,3,3,0,0,0-1.66-.43,3.26,3.26,0,0,0-1.79.46,2.87,2.87,0,0,0-1.11,1.35,5.56,5.56,0,0,0-.37,2.17,5.3,5.3,0,0,0,.37,2.1,2.91,2.91,0,0,0,1.1,1.33,3.22,3.22,0,0,0,1.74.46,3.19,3.19,0,0,0,3-1.85l1.65.57a4.86,4.86,0,0,1-1.09,1.57,4.77,4.77,0,0,1-1.58,1A5.26,5.26,0,0,1,263.58,139.12Zm-3.87-5v-1.39h7.74v1.39Z"/><path class="cls-7" d="M270.49,138.83V128.36H272v2.53l-.26-.33a4.47,4.47,0,0,1,.48-.89,2.84,2.84,0,0,1,.67-.67,3,3,0,0,1,.9-.5,4.31,4.31,0,0,1,1.06-.2,3.29,3.29,0,0,1,1,.06V130a3.15,3.15,0,0,0-1.23-.06,2.39,2.39,0,0,0-1.16.46,2.68,2.68,0,0,0-.77.84,4.1,4.1,0,0,0-.39,1.06,7,7,0,0,0-.11,1.3v5.25Z"/><path class="cls-7" d="M277.73,138.83v-14h1.73v6.25h-.19v7.71Zm4.82.29a4.14,4.14,0,0,1-2.45-.71,4.46,4.46,0,0,1-1.55-2,8,8,0,0,1,0-5.69,4.41,4.41,0,0,1,1.56-2,4.22,4.22,0,0,1,2.46-.71,4.41,4.41,0,0,1,2.49.71,4.67,4.67,0,0,1,1.63,2,7.46,7.46,0,0,1,0,5.67,4.69,4.69,0,0,1-1.63,2A4.35,4.35,0,0,1,282.55,139.12Zm-.21-1.58A2.78,2.78,0,0,0,284,137a3.08,3.08,0,0,0,1-1.41,6.23,6.23,0,0,0,0-4.06,3.1,3.1,0,0,0-1.05-1.4,2.88,2.88,0,0,0-1.73-.51,2.76,2.76,0,0,0-1.68.49,2.92,2.92,0,0,0-1,1.38,6.44,6.44,0,0,0,0,4.13,2.87,2.87,0,0,0,1,1.39A2.79,2.79,0,0,0,282.34,137.54Z"/><path class="cls-7" d="M293.84,139.12a5,5,0,0,1-2.68-.7,4.57,4.57,0,0,1-1.75-2,6.44,6.44,0,0,1-.62-2.87,6.3,6.3,0,0,1,.63-2.88,4.57,4.57,0,0,1,1.76-2,5.5,5.5,0,0,1,5.35,0,4.55,4.55,0,0,1,1.75,1.95,6.41,6.41,0,0,1,.61,2.87,6.5,6.5,0,0,1-.61,2.89,4.68,4.68,0,0,1-1.76,2A5.12,5.12,0,0,1,293.84,139.12Zm0-1.63a3.16,3.16,0,0,0,1.78-.49,2.92,2.92,0,0,0,1.08-1.37,5.38,5.38,0,0,0,.36-2,4.43,4.43,0,0,0-.83-2.84,2.84,2.84,0,0,0-2.39-1,3.17,3.17,0,0,0-1.79.48,3,3,0,0,0-1.07,1.36,5.51,5.51,0,0,0-.35,2,5.28,5.28,0,0,0,.37,2.07,2.91,2.91,0,0,0,1.08,1.35A3.11,3.11,0,0,0,293.84,137.49Z"/><path class="cls-7" d="M304,139.12a4.11,4.11,0,0,1-1.93-.42,3,3,0,0,1-1.21-1.13,3,3,0,0,1-.42-1.57,2.85,2.85,0,0,1,.67-2,3.85,3.85,0,0,1,1.9-1.1,15.06,15.06,0,0,1,1.74-.38c.64-.1,1.52-.22,2.65-.37l.49-.07.45-.06-.62.36a4.22,4.22,0,0,0-.24-1.54,1.76,1.76,0,0,0-.82-.9,3.43,3.43,0,0,0-1.52-.29,3,3,0,0,0-1.69.45,2.34,2.34,0,0,0-1,1.38l-1.64-.49a3.77,3.77,0,0,1,1.48-2.18,4.87,4.87,0,0,1,2.85-.77,5.26,5.26,0,0,1,2.46.52,3,3,0,0,1,1.46,1.52,3.79,3.79,0,0,1,.27,1,11.7,11.7,0,0,1,.06,1.26v6.47h-1.53v-2.51l.36.23a4.77,4.77,0,0,1-1,1.43,3.91,3.91,0,0,1-1.41.86A5.43,5.43,0,0,1,304,139.12Zm.27-1.44a3.6,3.6,0,0,0,1.58-.33,2.84,2.84,0,0,0,1.11-.87,2.9,2.9,0,0,0,.56-1.22,3.26,3.26,0,0,0,.14-.8c0-.29,0-.63,0-1v-.18l.6.26-.72.11c-.92.11-1.67.22-2.25.31a12.54,12.54,0,0,0-1.54.32,2.89,2.89,0,0,0-1.18.64,1.38,1.38,0,0,0-.45,1.08,1.6,1.6,0,0,0,.22.84,1.64,1.64,0,0,0,.7.62A2.77,2.77,0,0,0,304.27,137.68Z"/><path class="cls-7" d="M311.94,138.83V128.36h1.54v2.53l-.25-.33a3.64,3.64,0,0,1,.48-.89,2.63,2.63,0,0,1,.66-.67,3,3,0,0,1,.91-.5,4.15,4.15,0,0,1,1.05-.2,3.36,3.36,0,0,1,1,.06V130a3.16,3.16,0,0,0-1.23-.06,2.39,2.39,0,0,0-1.17.46,2.65,2.65,0,0,0-.76.84,3.79,3.79,0,0,0-.4,1.06,7,7,0,0,0-.11,1.3v5.25Z"/><path class="cls-7" d="M323.1,139.12a4.34,4.34,0,0,1-2.49-.72,4.64,4.64,0,0,1-1.64-2,7,7,0,0,1-.56-2.83,6.79,6.79,0,0,1,.57-2.84,4.59,4.59,0,0,1,1.63-2,4.4,4.4,0,0,1,2.48-.71,4.25,4.25,0,0,1,2.47.71,4.46,4.46,0,0,1,1.55,2,8,8,0,0,1,0,5.69,4.46,4.46,0,0,1-1.55,2A4.15,4.15,0,0,1,323.1,139.12Zm.21-1.58A2.8,2.8,0,0,0,325,137a2.92,2.92,0,0,0,1-1.39,6.44,6.44,0,0,0,0-4.13,3,3,0,0,0-1-1.38,2.76,2.76,0,0,0-1.68-.49,2.88,2.88,0,0,0-1.73.51,3.1,3.1,0,0,0-1.05,1.4,6.23,6.23,0,0,0,0,4.06,3.08,3.08,0,0,0,1,1.41A2.78,2.78,0,0,0,323.31,137.54Zm3.07,1.29v-7.71h-.19v-6.25h1.73v14Z"/><text class="cls-8" transform="translate(54.04 104.41)">Ches<tspan class="cls-9" x="149.07" y="0">Sudoku</tspan></text></svg>